<svg xmlns="http://www.w3.org/2000/svg" fill="#D4AF37" viewBox="0 0 64 64" id="book"><path d="M60 12h-2v34a3 3 0 0 1-3 3H42.72a17 17 0 0 0-7.6 1.8l-1.78.88A2.91 2.91 0 0 1 32 52a4.17 4.17 0 0 1-2-.65c-.27-.15-.59-.32-1-.51h-.1a17 17 0 0 0-7.6-1.8H9a3 3 0 0 1-3-3V12H4a1 1 0 0 0-1 1v40a1 1 0 0 0 1 1h56a1 1 0 0 0 1-1V13a1 1 0 0 0-1-1Z"></path><path d="M30.67 10.22A21.07 21.07 0 0 0 22 8v23a1 1 0 0 1-1.55.83L18 30.2l-2.45 1.63A1 1 0 0 1 14 31V8H9a1 1 0 0 0-1 1v37a1 1 0 0 0 1 1h12.28a19 19 0 0 1 8.5 2c.52.22.9.43 1.22.6V10.38zM55 8H42.72a21.12 21.12 0 0 0-9.39 2.22l-.33.16v39.24l1.22-.62a19 19 0 0 1 8.5-2H55a1 1 0 0 0 1-1V9a1 1 0 0 0-1-1zM38 26h8.13v2H38zm0 8h8.13v2H38zm12 6H38v-2h12zm0-8H38v-2h12zm0-8H38v-2h12z"></path></svg>