<?xml version="1.0" encoding="iso-8859-1"?>
<!-- Uploaded to: SVG Repo, www.svgrepo.com, Generator: SVG Repo Mixer Tools -->
<!DOCTYPE svg PUBLIC "-//W3C//DTD SVG 1.1//EN" "http://www.w3.org/Graphics/SVG/1.1/DTD/svg11.dtd">
<svg fill="#fff" height="800px" width="800px" version="1.1" id="Capa_1" xmlns="http://www.w3.org/2000/svg" xmlns:xlink="http://www.w3.org/1999/xlink" 
	 viewBox="0 0 233.357 233.357" xml:space="preserve">
<path d="M174.628,220.933l5.303-2.197l51.229-51.227l2.197-5.303V18.557l-11.816-6.134l-17.528,12.332l-17.524-12.332l-8.633,0
	l-17.523,12.331l-17.519-12.331l-8.634,0.001l-17.515,12.33l-17.52-12.33l-8.634,0.001l-17.517,12.33L55.483,12.425l-8.635,0
	l-17.514,12.33l-17.519-12.33L0,18.557v194.876l7.5,7.5H174.628z M176.197,197.032v-32.224c0-0.569,0.461-1.033,1.026-1.033h32.229
	L176.197,197.032z M15,33.007l10.019,7.052l8.634,0l17.514-12.329l17.512,12.329l8.635,0l17.517-12.33l17.52,12.33l8.634,0
	l17.515-12.33l17.52,12.33h8.633l17.523-12.331l17.524,12.331h8.632l10.028-7.055v116.862h-14.784v-12.31h-84.333v15h49.459
	c-3.283,2.294-5.593,5.871-6.221,10h-43.238v15h43.05v28.376H15V33.007z M26.933,191.114h79.409V87.746H26.933V191.114z
	 M41.933,102.746h49.409v73.368H41.933V102.746z M67.567,134.928h18.5v4.5c0,10.201-8.299,18.5-18.5,18.5s-18.5-8.299-18.5-18.5
	c0-10.201,8.299-18.5,18.5-18.5c4.112,0,8.011,1.325,11.274,3.831l-5.48,7.139c-1.678-1.288-3.682-1.969-5.794-1.969
	c-5.238,0-9.5,4.261-9.5,9.499c0,5.238,4.262,9.5,9.5,9.5c3.611,0,6.759-2.025,8.365-5h-8.365V134.928z M204.645,70.057H33.834v-15
	h170.811V70.057z M119.239,87.557h84.333v15h-84.333V87.557z M119.239,112.557h84.333v15h-84.333V112.557z"/>
</svg>