<?xml version="1.0" encoding="UTF-8"?>
<svg id="Layer_1" data-name="Layer 1" xmlns="http://www.w3.org/2000/svg" viewBox="0 0 198.43 198.43" fill= "#ffffff">
  <path d="m81.58,57.38c-.3.52-.69,1.25-1.07,2.15-.27.65-.92,2.27-1.3,4.44-.19,1.13-.29,2.29-.29,3.46,0,.15,0,.31.01.46l-10.76-10.76v46.22c0,5.61,4.55,10.15,10.15,10.15v-2.59c-2.75,0-4.98-2.23-4.98-4.98v-36.3l11.08,11.07,14.31,14.31,3.37,3.37,7.5,7.5.45.45c-.04.05-.08.09-.13.14-.53.53-1.08,1-1.66,1.43-.57.43-1.18.82-1.79,1.15l-.2.11c-.14.07-.28.15-.5.25-.66.32-1.34.59-2.02.8-.51.16-1.01.29-1.49.39-.47.1-.96.17-1.47.23-.51.05-1.04.07-1.61.08l-.25-.02c-.19,0-.39,0-.59-.02-.33-.01-.66-.04-1.05-.09-.14-.02-.29-.04-.43-.06-.13-.02-.26-.04-.4-.07-.12-.03-.24-.06-.36-.08h-.02c-6.95-1.52-11.99-7.92-11.99-15.23v-1.22l1.99,1.99,1.83-1.83-9.03-9.04.05,10.1c0,.14,0,.29.01.43h-.01c0,9.51,6.73,17.85,15.95,19.83.03.01.05.01.08.02.07.02.14.03.21.04.28.06.55.12.83.16l.12.02c.22.03.43.06.59.08.12.01.23.03.35.04.31.04.64.06.99.08.03.01.07.01.1.01.22.01.45.02.69.02.13.01.26.01.4.01.69,0,1.39-.04,2.08-.11.7-.07,1.38-.17,2.01-.31.63-.13,1.28-.29,1.96-.5.45-.14.89-.3,1.32-.46.06-.03.13-.06.19-.08.41-.16.8-.34,1.16-.52.26-.11.5-.24.74-.36l.22-.12c.87-.47,1.69-1.01,2.45-1.57.76-.57,1.51-1.22,2.21-1.92.31-.31.54-.56.67-.7,0,0,.01-.01.02-.02.73-.8,1.38-1.68,1.97-2.59l.04-.06c.63-.97,1.2-1.99,1.66-3.06,0,0,0-.02.01-.03.12-.29.53-1.26.86-2.44.49-1.76.74-3.59.74-5.47,0-4.81-1.8-9.34-5.08-12.82,0,0,0,0,0,0l10.64-10.64v33.53c0,2.8-2.27,5.08-5.08,5.08v2.59c5.61,0,10.16-4.54,10.17-10.15l.08-43.53-19.47,19.47-22.41-22.41c.05-.05.09-.1.14-.14.45-.45.95-.89,1.5-1.3.05-.05.1-.09.15-.13t.02-.01c.22-.17.44-.32.66-.47.31-.2.61-.39.92-.57.74-.42,1.5-.77,2.28-1.05.2-.07.4-.14.59-.2.58-.19,1.17-.33,1.76-.44.17-.03.34-.06.52-.09.18-.03.36-.05.55-.07.58-.07,1.17-.1,1.79-.1h.25c.19.01.38.02.58.03.33.01.66.04,1.07.1.14.01.28.03.41.05.14.03.27.05.4.07.12.03.25.06.37.08h.01c.35.08.69.16,1.03.26,4.1,1.22,7.44,4.17,9.31,7.96h0s-3.98,3.97-3.98,3.97l1.83,1.83,7.18-7.18v-.02l.02-.02.08-.08c-.35-.81-.76-1.59-1.22-2.35l-.02-.04h0c-2.82-4.67-7.46-8.16-13-9.35-.05-.02-.11-.03-.16-.04-.03-.01-.05-.01-.08-.02-.3-.06-.6-.12-.9-.17l-.11-.02c-.22-.03-.45-.06-.59-.08-.44-.05-.9-.1-1.35-.12-.25-.02-.49-.03-.75-.03h-.01c-.86-.06-1.85.03-2.7.12-.48.05-.95.13-1.44.21-2.18.41-4.28,1.17-6.26,2.28-.19.11-.38.22-.57.34-.53.32-1.06.68-1.6,1.08-.79.59-1.53,1.24-2.2,1.91-.23.23-.46.47-.66.69-.14.15-.28.31-.48.54-.15.19-.31.38-.41.51-.17.2-.31.4-.52.67h0c-.41.64-.81,1.27-1.22,1.9Zm31.58,44.28c-.05.11-.09.21-.14.32l-10.63-10.63-14.32-14.31c-.08-.08-.16-.16-.23-.24-2.39-2.5-3.75-5.9-3.75-9.37,0-2.04.4-4.02,1.19-5.89.05-.11.09-.21.14-.32l24.95,24.95c2.57,2.56,3.98,5.97,3.98,9.6,0,2.06-.4,4.04-1.19,5.89Z"/>
  <g>
    <path d="m50.22,141.71c-1.03-.65-1.54-1.64-1.54-2.98,0-.71.12-1.25.37-1.62.24-.37.6-.56,1.08-.56.35,0,.63.09.85.27.22.18.33.41.33.69,0,.26-.02.48-.06.68,0,.05,0,.14-.03.27-.02.13-.03.26-.03.41,0,.58.29,1.01.88,1.29.59.28,1.41.42,2.46.42s1.95-.2,2.57-.59c.62-.39.93-.94.93-1.65,0-.44-.14-.81-.42-1.13-.28-.32-.64-.58-1.06-.79-.42-.21-1.02-.47-1.8-.78-.99-.39-1.8-.75-2.42-1.1-.62-.35-1.16-.82-1.6-1.42s-.67-1.34-.67-2.23.25-1.75.74-2.47c.5-.72,1.21-1.28,2.14-1.68.93-.4,2.03-.6,3.29-.6.94,0,1.8.14,2.59.41.78.28,1.41.7,1.88,1.26.47.57.7,1.26.7,2.08s-.12,1.42-.37,1.83c-.24.41-.61.62-1.08.62-.33,0-.61-.1-.84-.31-.23-.21-.34-.45-.34-.73,0-.24.02-.47.06-.68.04-.39.06-.63.06-.73,0-.54-.26-.95-.79-1.24-.53-.28-1.18-.42-1.97-.42-1.11,0-1.95.2-2.54.61-.59.41-.88.97-.88,1.71,0,.49.15.91.45,1.25.3.35.68.64,1.13.87.45.23,1.08.51,1.89.83.98.4,1.76.76,2.35,1.08.59.32,1.1.76,1.52,1.31.42.55.63,1.24.63,2.05,0,1.52-.58,2.69-1.73,3.5-1.15.82-2.69,1.23-4.62,1.23-1.71,0-3.08-.32-4.11-.97Z"/>
    <path d="m62.79,141.76c-.48-.58-.71-1.34-.71-2.28,0-1.03.24-2,.71-2.92.48-.92,1.11-1.66,1.9-2.22s1.63-.84,2.52-.84c.28,0,.47.05.57.16.1.11.18.31.24.59.27-.05.55-.08.85-.08.63,0,.95.23.95.68,0,.27-.1.91-.29,1.93-.3,1.48-.44,2.51-.44,3.09,0,.19.05.35.14.46.1.12.22.17.38.17.24,0,.54-.16.89-.47.35-.32.82-.83,1.41-1.53.15-.18.33-.27.52-.27.17,0,.3.08.4.23s.14.37.14.64c0,.51-.12.91-.37,1.2-.53.66-1.09,1.21-1.68,1.66-.59.45-1.16.68-1.72.68-.42,0-.81-.14-1.17-.43-.35-.29-.62-.69-.8-1.19-.67,1.08-1.51,1.62-2.53,1.62-.8,0-1.44-.29-1.91-.87Zm3.42-1.58c.26-.33.44-.78.56-1.33l.71-3.55c-.54.01-1.04.22-1.5.61-.46.39-.82.91-1.09,1.55-.27.64-.41,1.33-.41,2.05,0,.4.08.69.24.89.16.19.38.29.67.29s.55-.17.81-.5Z"/>
    <path d="m81.68,138.51c.1.16.14.36.14.61,0,.3-.05.53-.14.69-.09.17-.23.32-.42.44-1.11.75-1.92,1.3-2.43,1.66l-1.24.83c-.49,2.66-1.13,4.76-1.92,6.28-.79,1.52-1.8,2.29-3.02,2.29-.66,0-1.19-.2-1.6-.61-.41-.41-.62-.94-.62-1.59,0-.91.36-1.89,1.08-2.94.72-1.05,2.07-2.34,4.05-3.87l.12-.75c-.22.35-.51.61-.86.8-.35.19-.7.28-1.05.28-.8,0-1.44-.29-1.91-.87-.48-.58-.71-1.34-.71-2.28,0-1.03.24-2,.71-2.92.48-.92,1.11-1.66,1.9-2.22s1.63-.84,2.52-.84c.28,0,.47.05.57.16.1.11.18.31.24.59.24-.05.53-.08.85-.08s.55.05.69.14c.14.1.2.29.2.57,0,.15,0,.28-.02.37-.05.4-.21,1.41-.48,3.03-.05.31-.11.65-.16,1.01s-.12.76-.18,1.17c.99-.77,1.94-1.45,2.86-2.05.17-.1.32-.15.44-.15.17,0,.3.08.4.24Zm-7.72,9.78c.41-.77.79-2,1.17-3.69-.99.85-1.71,1.61-2.14,2.3-.44.68-.66,1.28-.66,1.8,0,.22.04.4.13.54.08.14.22.21.41.21.32,0,.69-.39,1.09-1.16Zm1.36-8.15c.27-.36.46-.87.58-1.54l.62-3.3c-.53.01-1.02.22-1.47.61-.45.39-.81.91-1.08,1.55-.27.64-.41,1.33-.41,2.05,0,.4.08.69.24.89.16.19.38.29.67.29s.58-.18.85-.54Z"/>
    <path d="m91.75,138.46c.1.15.14.37.14.64,0,.51-.12.91-.37,1.2-.59.68-1.2,1.24-1.82,1.68-.62.44-1.34.66-2.13.66-.66,0-1.15-.19-1.49-.57-.33-.38-.5-.93-.5-1.65,0-.36.09-1,.27-1.93.17-.81.25-1.37.25-1.68,0-.21-.07-.31-.21-.31-.17,0-.41.22-.71.65-.31.43-.62,1-.93,1.71-.31.71-.56,1.45-.75,2.24-.24,1.03-.85,1.54-1.81,1.54-.39,0-.64-.14-.76-.42-.12-.28-.18-.78-.18-1.5,0-.41,0-.74.02-.98l.02-1.54c0-1.98.2-4.05.61-6.2.41-2.15,1-3.95,1.8-5.41.79-1.46,1.74-2.19,2.85-2.19.59,0,1.07.25,1.44.76.37.51.55,1.17.55,1.98,0,1.3-.38,2.65-1.14,4.04-.76,1.4-1.99,3.03-3.71,4.89-.04.67-.06,1.36-.06,2.07.42-1.09.9-1.98,1.42-2.67.52-.69,1.04-1.18,1.54-1.48.51-.3.97-.44,1.4-.44.84,0,1.25.42,1.25,1.25,0,.5-.14,1.41-.42,2.72-.24,1.12-.37,1.86-.37,2.22,0,.51.19.77.56.77.26,0,.56-.16.92-.47.35-.32.83-.83,1.42-1.53.15-.18.33-.27.52-.27.17,0,.3.08.4.23Zm-6.9-11.17c-.28.66-.56,1.56-.82,2.68-.26,1.13-.48,2.35-.65,3.68.8-.94,1.46-1.96,1.98-3.07.52-1.11.78-2.11.78-3.01,0-.41-.05-.73-.14-.95-.09-.22-.22-.33-.39-.33-.23,0-.49.33-.77.99Z"/>
    <path d="m90.88,141.74c-.38-.59-.57-1.38-.57-2.35,0-.58.07-1.32.22-2.23.15-.91.34-1.75.57-2.54.12-.41.27-.69.46-.85.19-.15.5-.23.93-.23.66,0,.98.22.98.66,0,.32-.12,1.07-.37,2.24-.31,1.42-.46,2.37-.46,2.88,0,.39.05.68.15.89.1.21.28.31.52.31.23,0,.52-.16.87-.48.35-.32.81-.83,1.39-1.52.15-.18.33-.27.52-.27.17,0,.3.08.4.23.1.15.14.37.14.64,0,.51-.12.91-.37,1.2-1.27,1.56-2.46,2.34-3.57,2.34-.84,0-1.44-.3-1.82-.89Zm.76-9.85c-.27-.25-.41-.6-.41-1.05s.18-.83.53-1.13c.35-.3.79-.45,1.32-.45.48,0,.86.12,1.16.35.3.23.44.56.44.98,0,.51-.17.92-.5,1.23-.33.3-.78.45-1.33.45s-.95-.13-1.22-.38Z"/>
    <path d="m98.39,141.86c-.92-.51-1.65-1.27-2.19-2.27-.54-1-.81-2.19-.81-3.58,0-1.96.36-3.68,1.07-5.17.71-1.49,1.69-2.64,2.91-3.46,1.23-.81,2.59-1.22,4.08-1.22,1.15,0,2.18.26,3.1.77.92.51,1.65,1.27,2.19,2.27.54,1,.81,2.19.81,3.58,0,1.96-.36,3.68-1.07,5.17-.71,1.49-1.69,2.64-2.91,3.46-1.23.81-2.59,1.22-4.08,1.22-1.15,0-2.18-.26-3.1-.77Zm5.95-2.43c.77-.62,1.35-1.48,1.77-2.58.41-1.1.62-2.35.62-3.74,0-1.53-.32-2.69-.97-3.48-.64-.79-1.47-1.19-2.49-1.19s-1.87.31-2.63.92c-.76.61-1.35,1.47-1.78,2.57-.42,1.1-.64,2.35-.64,3.75,0,1.53.32,2.69.97,3.48.64.79,1.47,1.19,2.49,1.19s1.89-.31,2.65-.93Z"/>
    <path d="m113.36,142.31c-.21-.21-.31-.61-.31-1.21,0-.4.04-.91.13-1.53.08-.62.22-1.48.41-2.58.33-2.02.6-3.77.79-5.25.12-.93.17-1.7.17-2.32,0-.58-.21-.87-.64-.87-.33,0-.74.17-1.21.51-.47.34-.99.88-1.55,1.63-.18.24-.38.37-.6.37-.18,0-.34-.09-.47-.26-.14-.17-.2-.37-.2-.59,0-.21.04-.42.13-.63.08-.21.22-.45.41-.72.62-.86,1.31-1.53,2.07-2,.76-.47,1.52-.7,2.28-.7.71,0,1.25.23,1.63.68.38.45.57,1.11.57,1.97,0,.35-.03.76-.1,1.23-.06.47-.12.85-.17,1.15-.05.3-.09.5-.12.62.73-2.1,1.56-3.56,2.47-4.39.91-.83,1.92-1.24,3.01-1.24.84,0,1.5.3,1.98.89.48.59.72,1.43.72,2.51,0,.42-.06.95-.17,1.58.64-1.78,1.4-3.05,2.26-3.82.86-.77,1.85-1.16,2.97-1.16.9,0,1.59.29,2.07.87.48.58.72,1.39.72,2.43,0,.57-.08,1.25-.25,2.07l-1.18,5.52c-.13.64-.19,1.2-.19,1.66,0,.54.13.95.38,1.22.25.27.6.41,1.05.41.42,0,.84-.14,1.25-.42.41-.28.88-.75,1.44-1.41.15-.18.33-.27.52-.27.17,0,.3.08.4.23s.14.37.14.64c0,.5-.12.9-.37,1.2-.67.81-1.33,1.4-1.99,1.78-.66.37-1.34.56-2.07.56-1.09,0-1.95-.32-2.57-.97-.62-.65-.93-1.52-.93-2.62,0-.76.15-1.86.46-3.3l.77-3.53c.03-.12.07-.32.14-.62.06-.3.12-.58.15-.84.04-.26.06-.52.06-.78,0-.45-.09-.79-.26-1.01-.17-.23-.42-.34-.74-.34-.61,0-1.24.39-1.9,1.17-.66.78-1.29,2.07-1.89,3.87-.6,1.8-1.08,4.14-1.46,7.03-.09.77-.25,1.29-.47,1.55-.23.26-.59.4-1.09.4-.44,0-.76-.1-.96-.31-.2-.21-.3-.59-.3-1.16,0-.53.07-1.22.21-2.07.14-.86.32-1.86.54-3.02.59-3.11.89-5.12.89-6.02,0-.49-.09-.85-.28-1.08-.19-.23-.47-.35-.84-.35-.63,0-1.28.36-1.95,1.07-.67.71-1.32,1.98-1.96,3.8-.64,1.82-1.17,4.28-1.59,7.38-.09.66-.22,1.11-.4,1.37-.17.26-.51.39-1.01.39s-.82-.11-1.02-.32Z"/>
    <path d="m143.62,138.46c.1.15.14.37.14.64,0,.51-.12.91-.37,1.2-.48.58-1.15,1.11-2.02,1.6-.87.49-1.8.73-2.79.73-1.35,0-2.4-.37-3.15-1.1-.75-.73-1.12-1.74-1.12-3.01,0-.89.19-1.71.56-2.48.37-.77.89-1.37,1.55-1.82.66-.45,1.41-.68,2.25-.68.75,0,1.34.22,1.8.67.45.44.68,1.05.68,1.8,0,.89-.32,1.65-.96,2.29-.64.64-1.71,1.14-3.23,1.52.32.59.93.89,1.83.89.58,0,1.24-.2,1.98-.61.74-.41,1.38-.94,1.92-1.59.15-.18.33-.27.52-.27.17,0,.3.08.4.23Zm-6.47-2.2c-.33.55-.49,1.22-.49,2.01v.04c.76-.18,1.36-.45,1.8-.81.44-.36.66-.78.66-1.25,0-.24-.07-.44-.2-.59-.14-.15-.32-.22-.55-.22-.48,0-.88.28-1.21.83Z"/>
    <path d="m149.57,133.66c.12.08.17.21.17.39,0,.31-.17,1.41-.5,3.3-.3,1.81-.47,2.89-.52,3.22-.48,3.31-1.13,5.93-1.97,7.86-.84,1.93-1.95,2.9-3.34,2.9-.66,0-1.19-.2-1.6-.61-.41-.41-.62-.94-.62-1.59,0-.61.14-1.22.42-1.85.28-.63.79-1.35,1.54-2.17.75-.82,1.82-1.75,3.19-2.81l.06-.44c.09-.48.19-1.16.31-2.05-.26.93-.62,1.63-1.08,2.11-.46.48-.95.72-1.47.72-.58,0-1.05-.27-1.42-.8-.37-.53-.55-1.2-.55-2,0-.97.06-1.85.19-2.65.13-.8.34-1.66.64-2.56.13-.39.31-.66.54-.83.23-.17.6-.25,1.1-.25.28,0,.48.05.59.14.11.09.16.23.16.41,0,.1-.07.45-.21,1.04-.13.48-.23.91-.31,1.29-.1.53-.19,1.03-.27,1.52-.08.48-.12.88-.12,1.19,0,.49.14.73.41.73.19,0,.43-.19.72-.58.29-.39.6-.97.93-1.76.33-.78.65-1.75.96-2.9.1-.39.26-.66.47-.83.21-.17.53-.25.96-.25.3,0,.5.04.62.12Zm-4.86,14.67c.4-.75.8-1.99,1.2-3.73-.99.84-1.71,1.6-2.15,2.29-.44.69-.67,1.29-.67,1.8,0,.22.04.4.13.54.08.14.22.21.41.21.32,0,.68-.37,1.08-1.12Z"/>
  </g>
</svg>