<?xml version="1.0" encoding="UTF-8"?>
<svg id="Layer_1" data-name="Layer 1" xmlns="http://www.w3.org/2000/svg" viewBox="0 0 198.43 198.43" fill= "#ffffff">
  <path d="m81.58,57.38c-.3.52-.69,1.25-1.07,2.15-.27.65-.92,2.27-1.3,4.44-.19,1.13-.29,2.29-.29,3.46,0,.15,0,.31.01.46l-10.76-10.76v46.22c0,5.61,4.55,10.15,10.15,10.15v-2.59c-2.75,0-4.98-2.23-4.98-4.98v-36.3l11.08,11.07,14.31,14.31,3.37,3.37,7.5,7.5.45.45c-.04.05-.08.09-.13.14-.53.53-1.08,1-1.66,1.43-.57.43-1.18.82-1.79,1.15l-.2.11c-.14.07-.28.15-.5.25-.66.32-1.34.59-2.02.8-.51.16-1.01.29-1.49.39-.47.1-.96.17-1.47.23-.51.05-1.04.07-1.61.08l-.25-.02c-.19,0-.39,0-.59-.02-.33-.01-.66-.04-1.05-.09-.14-.02-.29-.04-.43-.06-.13-.02-.26-.04-.4-.07-.12-.03-.24-.06-.36-.08h-.02c-6.95-1.52-11.99-7.92-11.99-15.23v-1.22l1.99,1.99,1.83-1.83-9.03-9.04.05,10.1c0,.14,0,.29.01.43h-.01c0,9.51,6.73,17.85,15.95,19.83.03.01.05.01.08.02.07.02.14.03.21.04.28.06.55.12.83.16l.12.02c.22.03.43.06.59.08.12.01.23.03.35.04.31.04.64.06.99.08.03.01.07.01.1.01.22.01.45.02.69.02.13.01.26.01.4.01.69,0,1.39-.04,2.08-.11.7-.07,1.38-.17,2.01-.31.63-.13,1.28-.29,1.96-.5.45-.14.89-.3,1.32-.46.06-.03.13-.06.19-.08.41-.16.8-.34,1.16-.52.26-.11.5-.24.74-.36l.22-.12c.87-.47,1.69-1.01,2.45-1.57.76-.57,1.51-1.22,2.21-1.92.31-.31.54-.56.67-.7,0,0,.01-.01.02-.02.73-.8,1.38-1.68,1.97-2.59l.04-.06c.63-.97,1.2-1.99,1.66-3.06,0,0,0-.02.01-.03.12-.29.53-1.26.86-2.44.49-1.76.74-3.59.74-5.47,0-4.81-1.8-9.34-5.08-12.82,0,0,0,0,0,0l10.64-10.64v33.53c0,2.8-2.27,5.08-5.08,5.08v2.59c5.61,0,10.16-4.54,10.17-10.15l.08-43.53-19.47,19.47-22.41-22.41c.05-.05.09-.1.14-.14.45-.45.95-.89,1.5-1.3.05-.05.1-.09.15-.13t.02-.01c.22-.17.44-.32.66-.47.31-.2.61-.39.92-.57.74-.42,1.5-.77,2.28-1.05.2-.07.4-.14.59-.2.58-.19,1.17-.33,1.76-.44.17-.03.34-.06.52-.09.18-.03.36-.05.55-.07.58-.07,1.17-.1,1.79-.1h.25c.19.01.38.02.58.03.33.01.66.04,1.07.1.14.01.28.03.41.05.14.03.27.05.4.07.12.03.25.06.37.08h.01c.35.08.69.16,1.03.26,4.1,1.22,7.44,4.17,9.31,7.96h0s-3.98,3.97-3.98,3.97l1.83,1.83,7.18-7.18v-.02l.02-.02.08-.08c-.35-.81-.76-1.59-1.22-2.35l-.02-.04h0c-2.82-4.67-7.46-8.16-13-9.35-.05-.02-.11-.03-.16-.04-.03-.01-.05-.01-.08-.02-.3-.06-.6-.12-.9-.17l-.11-.02c-.22-.03-.45-.06-.59-.08-.44-.05-.9-.1-1.35-.12-.25-.02-.49-.03-.75-.03h-.01c-.86-.06-1.85.03-2.7.12-.48.05-.95.13-1.44.21-2.18.41-4.28,1.17-6.26,2.28-.19.11-.38.22-.57.34-.53.32-1.06.68-1.6,1.08-.79.59-1.53,1.24-2.2,1.91-.23.23-.46.47-.66.69-.14.15-.28.31-.48.54-.15.19-.31.38-.41.51-.17.2-.31.4-.52.67h0c-.41.64-.81,1.27-1.22,1.9Zm31.58,44.28c-.05.11-.09.21-.14.32l-10.63-10.63-14.32-14.31c-.08-.08-.16-.16-.23-.24-2.39-2.5-3.75-5.9-3.75-9.37,0-2.04.4-4.02,1.19-5.89.05-.11.09-.21.14-.32l24.95,24.95c2.57,2.56,3.98,5.97,3.98,9.6,0,2.06-.4,4.04-1.19,5.89Z"/>
</svg>